<?xml version="1.0" encoding="UTF-8"?>
<svg version="1.1" xmlns="http://www.w3.org/2000/svg" width="512" height="512">
<path d="M0 0 C1.89891665 -0.00461248 3.79782973 -0.01096772 5.69673538 -0.01890898 C10.89965741 -0.0355777 16.10228524 -0.02736701 21.30520821 -0.0149641 C26.92220153 -0.00590593 32.53914462 -0.01988717 38.15612793 -0.03088379 C49.15381592 -0.04866535 60.15139469 -0.0448306 71.14908695 -0.03323323 C80.0875596 -0.02419777 89.02600164 -0.0229754 97.96447754 -0.02732849 C99.23690158 -0.02794142 100.50932562 -0.02855436 101.82030797 -0.02918586 C104.40525533 -0.03046477 106.99020267 -0.03176162 109.57515001 -0.03307623 C133.12040645 -0.04415589 156.66558972 -0.03266806 180.21083385 -0.01170584 C201.69494977 0.00727594 223.17897084 0.0055774 244.66308594 -0.0135498 C268.81275109 -0.03497838 292.96234883 -0.04338234 317.11202621 -0.03110075 C319.68743641 -0.02982656 322.26284662 -0.02856908 324.83825684 -0.02732849 C326.73895742 -0.02640284 326.73895742 -0.02640284 328.678056 -0.02545848 C337.60524853 -0.02200555 346.53240741 -0.02783273 355.45959473 -0.0372467 C366.33963581 -0.04846787 377.21956147 -0.04542405 388.09958935 -0.02412373 C393.65019267 -0.01361502 399.20060357 -0.00948862 404.75120544 -0.02272034 C409.83395931 -0.03465349 414.91634268 -0.02806616 419.99906301 -0.00681013 C421.83607286 -0.00234802 423.67311411 -0.00460151 425.5101037 -0.01431328 C438.17056892 -0.07610349 448.1763529 0.71168603 457.72167969 9.79699707 C467.16063337 19.41155919 467.98984654 29.58929895 467.90930176 42.52502441 C467.91391605 44.14345548 467.92027251 45.76188235 467.92821074 47.38030052 C467.94485465 51.80793293 467.93668026 56.23521891 467.92426586 60.66285229 C467.91519742 65.44548536 467.92919399 70.22805981 467.94018555 75.01068115 C467.9579562 84.37205947 467.95413725 93.73330939 467.94253498 103.09469271 C467.93349522 110.70402866 467.93227902 118.31332867 467.93663025 125.92266846 C467.93724318 127.00636793 467.93785611 128.09006741 467.93848762 129.20660627 C467.93976654 131.40823763 467.9410634 133.60986897 467.94237798 135.81150031 C467.95377953 156.44798916 467.94067674 177.0844069 467.91917652 197.72088408 C467.90130594 215.4214209 467.90441016 233.12185277 467.92285156 250.8223877 C467.94426578 271.38588755 467.95268093 291.9493251 467.94040251 312.51283455 C467.93912833 314.70628992 467.93787085 316.8997453 467.93663025 319.09320068 C467.93601315 320.17237491 467.93539604 321.25154914 467.93476024 322.36342561 C467.931309 329.96212726 467.93713083 337.56078934 467.94654846 345.15948486 C467.95777592 354.42191057 467.95471262 363.68420072 467.93342549 372.94661093 C467.92292519 377.67091678 467.91877588 382.39499674 467.93202209 387.11930084 C467.94397292 391.44710541 467.93733926 395.77447545 467.91611189 400.1022408 C467.9116572 401.66468925 467.91388654 403.22717467 467.92361504 404.78959918 C467.9981135 417.75232147 466.01491875 426.73660186 456.91308594 436.30480957 C450.35047625 442.06112662 443.13460762 444.5174617 434.54199219 444.82434082 C433.42695313 444.86623535 432.31191406 444.90812988 431.16308594 444.95129395 C430.00421875 444.99061035 428.84535156 445.02992676 427.65136719 445.07043457 C426.47703125 445.11361816 425.30269531 445.15680176 424.09277344 445.20129395 C421.19575268 445.30728251 418.29864784 445.40935095 415.40136719 445.50793457 C416.28179687 446.30715332 417.16222656 447.10637207 418.06933594 447.92980957 C427.0806458 456.34148545 433.21225263 463.57817244 433.98046875 476.43811035 C434.21404748 486.97151703 431.45752459 495.57608239 424.33886719 503.44543457 C416.37147688 510.65277778 407.83191102 513.22851629 397.2019043 513.03210449 C381.15600597 512.19144861 371.21983469 500.61810759 360.58886719 489.89074707 C359.36762716 488.66577043 358.14594002 487.44123938 356.92382812 486.21713257 C353.7301353 483.01585435 350.54249822 479.80861324 347.35614014 476.60003662 C344.09494661 473.31827417 340.82798518 470.04226442 337.56152344 466.76574707 C331.16918834 460.35205209 324.7832443 453.93203456 318.40136719 447.50793457 C314.07058619 449.17795618 310.15565182 451.30472486 306.15136719 453.63293457 C262.77814074 478.26525876 211.5380274 485.73450985 163.02636719 473.15246582 C145.3922372 468.28959515 125.01528576 461.27390179 110.41954613 449.97356606 C104.17221495 445.1569889 99.18316047 444.66612464 91.44677734 444.79846191 C89.70103676 444.79215508 89.70103676 444.79215508 87.92002869 444.78572083 C84.09295912 444.77804402 80.26735114 444.8115481 76.44042969 444.84387207 C73.76673364 444.84277745 71.09319408 444.83894613 68.41952515 444.83108521 C60.67296593 444.8142956 52.92688062 444.84225212 45.18039703 444.87450409 C35.32802226 444.91306449 25.47572857 444.92899674 15.62329519 444.90929949 C11.03691489 444.90177563 6.45138995 444.92734682 1.86514282 444.95968628 C-0.55165602 444.96037158 -2.9684554 444.96006725 -5.38525391 444.95861816 C-7.00188179 444.98030312 -7.00188179 444.98030312 -8.65116882 445.00242615 C-19.81986775 444.94504222 -28.36055615 441.77291597 -36.43066406 434.02355957 C-41.43024667 428.22224209 -44.71548589 421.25376164 -44.7356472 413.56125069 C-44.74072174 412.53424274 -44.74579629 411.50723479 -44.7510246 410.44910538 C-44.75152236 409.31731571 -44.75202012 408.18552603 -44.75253296 407.0194397 C-44.75691521 405.81983986 -44.76129747 404.62024002 -44.76581252 403.38428867 C-44.77688237 400.04864533 -44.78342654 396.71304891 -44.78799367 393.37739396 C-44.79394936 389.7822158 -44.80555908 386.18705493 -44.81628418 382.59188843 C-44.8408057 373.90784294 -44.85543328 365.22379172 -44.86834425 356.53972226 C-44.87205582 354.0878194 -44.87602907 351.6359171 -44.88009691 349.1840148 C-44.90532884 333.96337605 -44.92738542 318.74273642 -44.93982506 303.52208138 C-44.94275482 299.99669517 -44.94571648 296.47130899 -44.94873047 292.94592285 C-44.94947652 292.06969017 -44.95022257 291.19345748 -44.95099123 290.29067229 C-44.9636526 276.08722108 -44.99688669 261.88389483 -45.0385323 247.68050207 C-45.08092134 233.10435215 -45.10451642 218.52826627 -45.10974562 203.95205486 C-45.11316277 195.76544803 -45.12495387 187.57903663 -45.15784836 179.39249039 C-45.18580822 172.42259342 -45.1968661 165.45293195 -45.1856529 158.48298325 C-45.18045606 154.92578668 -45.18341838 151.36908361 -45.20811844 147.81195831 C-45.2346575 143.95790231 -45.22258558 140.10452393 -45.20663452 136.25039673 C-45.22745765 134.55940438 -45.22745765 134.55940438 -45.24870145 132.83425057 C-45.17149639 125.29610121 -45.17149639 125.29610121 -42.24813271 121.27403069 C-39.59863281 119.50793457 -39.59863281 119.50793457 -36.59863281 119.50793457 C-36.59863281 114.22793457 -36.59863281 108.94793457 -36.59863281 103.50793457 C-38.57863281 102.84793457 -40.55863281 102.18793457 -42.59863281 101.50793457 C-45.03557242 97.85252516 -44.86241319 96.07503493 -44.88916016 91.7166748 C-44.89587738 91.03004257 -44.9025946 90.34341034 -44.90951538 89.63597107 C-44.92853073 87.36274998 -44.93242244 85.08982405 -44.93457031 82.81652832 C-44.94099989 81.23051331 -44.94772837 79.64449948 -44.95474243 78.05848694 C-44.96672692 74.72870134 -44.97042247 71.39901952 -44.96923828 68.06921387 C-44.96903596 63.82476892 -44.99624207 59.5810001 -45.0307827 55.33671474 C-45.05315328 52.05677813 -45.0570726 48.77700098 -45.05601883 45.49699593 C-45.05836323 43.9338557 -45.06712064 42.3707103 -45.08268356 40.8076458 C-45.19166552 28.72219386 -43.94455596 19.25982218 -35.30957031 10.18762207 C-24.96114006 0.02820424 -13.74480967 -0.07266586 0 0 Z " fill="#373838" transform="translate(44.5986328125,-0.5079345703125)"/>
<path d="M0 0 C2.48813857 -0.00966455 4.9754345 -0.04075396 7.46337891 -0.07226562 C17.9823004 -0.14093313 27.62284022 0.90313771 37.88916016 3.24023438 C38.92548584 3.46283936 39.96181152 3.68544434 41.02954102 3.91479492 C64.73226737 9.1414135 88.01961881 19.94270497 106.88916016 35.24023438 C107.80036621 35.9764502 107.80036621 35.9764502 108.72998047 36.72753906 C144.00038968 65.56554557 166.91494708 105.90772609 172.11328125 151.35498047 C176.73100049 197.43550569 163.31493237 242.28127307 134.42578125 278.37207031 C114.37365879 302.75065961 89.27599815 320.02204931 59.88916016 331.24023438 C59.24269531 331.49144043 58.59623047 331.74264648 57.93017578 332.00146484 C17.90052988 347.32631068 -28.24479183 343.89957827 -67.13427734 327.10742188 C-109.2070835 308.25777663 -141.80296333 273.2984852 -158.31494141 230.37646484 C-160.171596 225.39311279 -161.72947135 220.37369837 -163.11083984 215.24023438 C-163.45888672 214.00144531 -163.80693359 212.76265625 -164.16552734 211.48632812 C-175.84681548 168.66022873 -167.72759331 122.57494681 -146.11083984 84.24023438 C-140.56619253 74.97486685 -134.20350125 66.38013438 -127.11083984 58.24023438 C-125.86560547 56.79390625 -125.86560547 56.79390625 -124.59521484 55.31835938 C-98.53716466 25.6198108 -58.80324504 3.82166389 -19.14477539 0.40356445 C-12.76679551 0.06020978 -6.38608012 0.01493529 0 0 Z " fill="#FDFDFD" transform="translate(254.11083984375,119.759765625)"/>
<path d="M0 0 C157.74 0 315.48 0 478 0 C478.103125 54.12 478.20625 108.24 478.3125 164 C478.38078003 189.65492188 478.38078003 189.65492188 478.45043945 215.828125 C478.47302246 236.67578125 478.47302246 236.67578125 478.47721863 246.42822266 C478.48188638 253.25545837 478.5002484 260.08249014 478.52787781 266.90966797 C478.55969021 274.78208553 478.57418314 282.65430709 478.56722475 290.52678943 C478.56421071 294.55454416 478.569011 298.58186073 478.59607565 302.60953522 C478.62040937 306.25293293 478.62161724 309.89558272 478.60450554 313.53901482 C478.60138529 315.47782226 478.62293307 317.41662117 478.64540386 319.3553009 C478.58377337 326.55162229 477.78114017 331.45968308 473 337 C467.86153867 342.00698896 462.19480243 342.77527249 455.27734375 342.76953125 C453.92087486 342.78737923 453.92087486 342.78737923 452.53700256 342.80558777 C450.63695935 342.82204195 448.73676362 342.82553311 446.83666992 342.81665039 C443.9399306 342.81250348 441.05009285 342.87776259 438.15429688 342.94726562 C424.86826341 343.08709057 424.86826341 343.08709057 420.53540039 340.56591797 C418.75752668 338.49470708 417.44202637 336.31670185 416 334 C414.19805002 332.08455761 412.38741783 330.23623578 410.50390625 328.40625 C409.52328814 327.43049123 408.54347543 326.4539224 407.56445312 325.4765625 C406.56385833 324.48431828 405.56320662 323.49213145 404.5625 322.5 C403.5342702 321.47679861 402.50627374 320.45336267 401.47851562 319.4296875 C398.98835662 316.95042001 396.49507167 314.47432462 394 312 C395.15468743 308.97081157 396.36848795 306.19996069 398.1015625 303.4609375 C407.34741376 288.51043475 413.86887798 272.78918851 419 256 C419.28488281 255.08476562 419.56976563 254.16953125 419.86328125 253.2265625 C421.48299071 247.69463172 422.60617174 242.10496486 423.625 236.4375 C423.7482666 235.75316895 423.8715332 235.06883789 423.99853516 234.36376953 C431.92002361 188.24821641 420.97587352 138.67466468 394.37890625 100.14453125 C366.59669193 60.98218945 326.62476797 31.73599071 279 22 C278.15018555 21.82098145 277.30037109 21.64196289 276.42480469 21.45751953 C228.95348153 11.78199185 178.8526692 20.69286648 138 47 C93.91129964 76.38492651 64.99195311 119.80332161 54.45654297 171.67578125 C51.79761282 185.76520657 51.56911413 199.70266815 52 214 C52.0309375 215.29550781 52.061875 216.59101563 52.09375 217.92578125 C52.57345291 228.13146061 54.72369139 238.06701699 57 248 C57.16983398 248.74765625 57.33966797 249.4953125 57.51464844 250.265625 C65.2415923 283.24973854 82.35742508 312.15172844 105.63671875 336.4609375 C108 339 108 339 110 342 C97.49103637 342.11598544 84.98220123 342.20476228 72.47280884 342.25906086 C66.66380788 342.28512503 60.85517555 342.32046582 55.04638672 342.37719727 C49.43777862 342.43162921 43.82952451 342.46144445 38.22067261 342.47438622 C36.0836734 342.48360593 33.94669299 342.50161007 31.80984497 342.52865028 C28.8103082 342.56508855 25.81222343 342.56993908 22.8125 342.56762695 C21.93424057 342.58560333 21.05598114 342.60357971 20.15110779 342.62210083 C14.10966303 342.57189981 9.40201272 341.31304252 5 337 C-0.32904919 330.73894835 -0.70992738 325.09356618 -0.61231995 317.09332275 C-0.61785336 315.90916299 -0.62338677 314.72500322 -0.62908787 313.50495982 C-0.6394583 310.23535278 -0.62759103 306.96671239 -0.60623491 303.69718719 C-0.58868974 300.16481856 -0.60018034 296.63252974 -0.60824585 293.10014343 C-0.61843492 286.98494303 -0.61087395 280.86997427 -0.59158516 274.75479889 C-0.56405952 265.90902734 -0.56793749 257.06347933 -0.58017098 248.2176834 C-0.59955013 233.85912875 -0.59963195 219.5006479 -0.5847168 205.14208984 C-0.58383066 204.28337543 -0.58294453 203.42466101 -0.58203154 202.53992495 C-0.57839725 199.06016321 -0.57467985 195.58040156 -0.57086498 192.10064001 C-0.56039382 182.51257009 -0.55215404 172.92449921 -0.5456543 163.33642578 C-0.54506606 162.47754746 -0.54447783 161.61866914 -0.54387177 160.7337642 C-0.53459874 146.42299728 -0.54105416 132.11227447 -0.55796474 117.80151534 C-0.5675631 108.97500766 -0.56237436 100.14873659 -0.53819703 91.32225552 C-0.52247168 85.27975118 -0.52060452 79.2373479 -0.52973027 73.19483027 C-0.53446734 69.70664714 -0.53249124 66.2187893 -0.51309395 62.73064995 C-0.4953576 58.95307882 -0.50192098 55.17631543 -0.5146637 51.39874268 C-0.50349268 50.29136694 -0.49232166 49.18399121 -0.48081213 48.04305863 C-0.49335827 46.52846075 -0.49335827 46.52846075 -0.50615788 44.98326492 C-0.50496639 44.11120698 -0.50377491 43.23914904 -0.50254732 42.3406651 C-1.17586992 39.17247888 -2.51971656 38.02696467 -5 36 C-6.32 35.34 -7.64 34.68 -9 34 C-9 28.39 -9 22.78 -9 17 C-6.69 16.01 -4.38 15.02 -2 14 C-0.46557489 9.77845689 -0.46557489 9.77845689 0 0 Z " fill="#E4EFFD" transform="translate(17,85)"/>
<path d="M0 0 C6.59757361 5.50339473 11.49725311 11.785333 13.56640625 20.234375 C13.57285156 20.94722656 13.57929688 21.66007812 13.5859375 22.39453125 C13.63178506 24.89113949 13.76685341 26.86150852 14.56640625 29.234375 C16.64729564 31.0255203 18.8193804 32.27165454 21.203125 33.62890625 C25.9034597 36.82202618 28.79323243 41.91485355 30.56640625 47.234375 C30.64614101 48.56963217 30.67411963 49.90849583 30.6640625 51.24609375 C30.66083984 52.00341797 30.65761719 52.76074219 30.65429688 53.54101562 C30.64591797 54.32669922 30.63753906 55.11238281 30.62890625 55.921875 C30.62439453 56.71916016 30.61988281 57.51644531 30.61523438 58.33789062 C30.60346475 60.30341757 30.58552973 62.26890585 30.56640625 64.234375 C31.50355469 64.53085938 32.44070313 64.82734375 33.40625 65.1328125 C39.32993192 67.19768061 42.23634695 70.85437892 45.55078125 75.94140625 C46.89837019 78.98384744 47.20126759 81.94415815 47.56640625 85.234375 C50.3429989 84.50195488 53.11133408 83.74954047 55.87890625 82.984375 C56.66458984 82.77941406 57.45027344 82.57445312 58.25976562 82.36328125 C59.01708984 82.15058594 59.77441406 81.93789062 60.5546875 81.71875 C61.25118408 81.53022461 61.94768066 81.34169922 62.6652832 81.14746094 C65.83418062 79.62547861 67.05793358 77.53018417 68.32801819 74.29345703 C69.17822097 71.8304792 69.96813025 69.35391923 70.74609375 66.8671875 C71.35123814 64.9933848 71.95671736 63.11969021 72.5625 61.24609375 C73.50431561 58.30285861 74.44173 55.35835009 75.37255859 52.41162109 C76.27677833 49.55948372 77.19792868 46.71323954 78.12109375 43.8671875 C78.39210907 42.9920047 78.66312439 42.1168219 78.94235229 41.21511841 C80.68008909 35.89375686 82.52677249 32.16685249 86.56640625 28.234375 C90.70841956 27.49472977 92.76663584 27.8259816 96.50390625 29.734375 C98.8889229 32.62530427 98.93150148 34.23354993 98.82919312 37.89938354 C98.33192713 42.31783813 96.88384222 46.418321 95.4609375 50.61328125 C95.13985519 51.58418198 94.81877289 52.5550827 94.48796082 53.55540466 C93.80866258 55.59872103 93.12335207 57.6400474 92.43237305 59.67944336 C91.38286316 62.78516568 90.35921148 65.89858182 89.33789062 69.01367188 C88.6721111 71.00572308 88.00484246 72.99727735 87.3359375 74.98828125 C87.03363724 75.91137589 86.73133698 76.83447052 86.4198761 77.78553772 C83.74170531 85.5948796 80.3435213 91.88927958 73 96.109375 C65.2438457 99.69488453 56.86333777 101.39061244 48.56640625 103.234375 C48.23640625 109.504375 47.90640625 115.774375 47.56640625 122.234375 C48.96922852 122.21342773 50.37205078 122.19248047 51.81738281 122.17089844 C57.02056679 122.09851436 62.22370624 122.05258064 67.42724609 122.01464844 C69.67960086 121.99452944 71.93190338 121.96723092 74.18408203 121.93261719 C77.42102956 121.88411291 80.65728672 121.86140895 83.89453125 121.84375 C85.40566498 121.81278229 85.40566498 121.81278229 86.94732666 121.78118896 C93.93489186 121.77894471 93.93489186 121.77894471 97.20019531 124.13378906 C99.38308865 127.49004607 99.37531199 130.3722466 98.56640625 134.234375 C96.69625531 136.66557123 95.2850228 137.87506673 92.56640625 139.234375 C91.11603518 139.32386917 89.66161996 139.3519594 88.20849609 139.34790039 C86.85732193 139.34778709 86.85732193 139.34778709 85.47885132 139.34767151 C84.50485382 139.34251022 83.53085632 139.33734894 82.52734375 139.33203125 C81.53135162 139.3306163 80.5353595 139.32920135 79.50918579 139.32774353 C76.31989572 139.32213436 73.13067519 139.3095803 69.94140625 139.296875 C67.7825531 139.29186118 65.62369884 139.28729807 63.46484375 139.28320312 C58.16533768 139.27216195 52.86588377 139.25489114 47.56640625 139.234375 C47.56640625 145.174375 47.56640625 151.114375 47.56640625 157.234375 C50.00015625 157.811875 52.43390625 158.389375 54.94140625 158.984375 C64.98364967 161.47817508 74.7023762 163.90162236 81.56640625 172.234375 C84.64818907 177.6532426 86.81770494 183.33830269 88.80078125 189.23046875 C89.08367004 190.06344986 89.36655884 190.89643097 89.65802002 191.75465393 C90.24931238 193.50406621 90.83738672 195.25456921 91.42236328 197.00610352 C92.31442181 199.66595799 93.22707419 202.31816589 94.140625 204.97070312 C94.71612134 206.68186252 95.29038184 208.39343815 95.86328125 210.10546875 C96.27099762 211.27776283 96.27099762 211.27776283 96.68695068 212.47373962 C98.40860821 217.72384178 99.27027512 222.70272521 98.56640625 228.234375 C97.06640625 230.796875 97.06640625 230.796875 94.56640625 232.234375 C91.78464017 232.77590733 89.3156496 232.96464276 86.56640625 232.234375 C81.95812246 228.75716736 80.87320474 224.11791868 79.21875 218.83203125 C78.92078018 217.91731552 78.62281036 217.00259979 78.31581116 216.06016541 C77.36700159 213.14264245 76.43441958 210.22027982 75.50390625 207.296875 C74.56778227 204.37777614 73.62812869 201.45993781 72.68128967 198.54429626 C72.09354131 196.73230547 71.5122218 194.91821323 70.93821716 193.1018219 C68.77121499 185.37560426 68.77121499 185.37560426 63.2980957 180.02416992 C62.434021 179.75709229 61.56994629 179.49001465 60.6796875 179.21484375 C59.27299805 178.7652832 59.27299805 178.7652832 57.83789062 178.30664062 C56.86142578 178.01466797 55.88496094 177.72269531 54.87890625 177.421875 C53.89083984 177.11056641 52.90277344 176.79925781 51.88476562 176.47851562 C49.44992215 175.71395125 47.01109176 174.96673307 44.56640625 174.234375 C44.45176025 174.8217041 44.33711426 175.4090332 44.21899414 176.01416016 C41.03352411 191.43771014 30.63160324 204.62735804 17.56640625 213.234375 C-0.04678511 223.20448446 -19.13651468 227.74995688 -39.1171875 222.3984375 C-59.4014969 215.27862101 -73.54487355 202.74377969 -83.0859375 183.53125 C-84.37492771 180.37789423 -85.03014835 177.60493147 -85.43359375 174.234375 C-88.69426482 175.07244831 -91.93904126 175.96108981 -95.18359375 176.859375 C-96.10398438 177.09527344 -97.024375 177.33117187 -97.97265625 177.57421875 C-98.86210937 177.82558594 -99.7515625 178.07695312 -100.66796875 178.3359375 C-101.89338379 178.66585693 -101.89338379 178.66585693 -103.14355469 179.00244141 C-109.25306054 182.28906897 -110.81631581 189.68160575 -112.74609375 195.8671875 C-113.35275231 197.74352589 -113.95952661 199.61982686 -114.56640625 201.49609375 C-115.50469921 204.43552044 -116.4389166 207.37618999 -117.37011719 210.31787109 C-118.27692313 213.17102705 -119.19833633 216.01915796 -120.12109375 218.8671875 C-120.3941333 219.74641876 -120.66717285 220.62565002 -120.94848633 221.53152466 C-122.39956011 225.99324825 -123.55057553 229.30332891 -127.43359375 232.234375 C-131.27795347 233.25553305 -134.51632837 232.76180259 -137.93359375 230.796875 C-140.48800846 226.4330832 -139.96066259 221.64696985 -138.90039062 216.79370117 C-138.14539444 214.18438704 -137.31103128 211.61759667 -136.43359375 209.046875 C-136.11962646 208.10432861 -135.80565918 207.16178223 -135.48217773 206.19067383 C-134.81660477 204.20839893 -134.14387203 202.22851503 -133.46435547 200.25097656 C-132.4392805 197.2510177 -131.45309176 194.24009454 -130.46875 191.2265625 C-126.76707249 180.17752289 -123.45569155 170.31698104 -112.99609375 163.984375 C-105.78992181 160.85880645 -96.27738166 157.234375 -88.43359375 157.234375 C-88.43359375 151.294375 -88.43359375 145.354375 -88.43359375 139.234375 C-89.77059326 139.25008545 -91.10759277 139.2657959 -92.48510742 139.28198242 C-97.45168011 139.33633589 -102.41822656 139.37074499 -107.38500977 139.39916992 C-109.53349226 139.41424415 -111.68194405 139.43470689 -113.83032227 139.46069336 C-116.92081283 139.49713614 -120.01089606 139.51411519 -123.1015625 139.52734375 C-124.53933296 139.55056953 -124.53933296 139.55056953 -126.00614929 139.57426453 C-130.94046696 139.57550607 -134.47536404 139.55231026 -138.43359375 136.234375 C-139.99830608 133.10495035 -140.13061333 129.62355277 -139.43359375 126.234375 C-138.07397461 124.12939453 -138.07397461 124.12939453 -135.43359375 122.234375 C-131.87665659 121.66428329 -128.35576098 121.77009718 -124.76171875 121.84375 C-123.72416443 121.84940979 -122.68661011 121.85506958 -121.61761475 121.86090088 C-118.30580383 121.88328009 -114.99507731 121.93348081 -111.68359375 121.984375 C-109.43751563 122.00443794 -107.19142054 122.02268906 -104.9453125 122.0390625 C-99.44098883 122.0831502 -93.9374751 122.15218977 -88.43359375 122.234375 C-88.43359375 115.634375 -88.43359375 109.034375 -88.43359375 102.234375 C-91.07359375 101.904375 -93.71359375 101.574375 -96.43359375 101.234375 C-107.27548795 98.949513 -116.51465957 96.78475081 -123.14593506 87.36820984 C-125.48681269 83.4890404 -126.79882049 79.27642163 -128.203125 74.98828125 C-128.52899094 74.01833725 -128.85485687 73.04839325 -129.19059753 72.04905701 C-129.87279155 70.00789269 -130.54899126 67.96471613 -131.21948242 65.91967773 C-132.2437122 62.80411934 -133.29329551 59.69793437 -134.34570312 56.59179688 C-135.00805012 54.59946954 -135.66890798 52.60664641 -136.328125 50.61328125 C-136.64054642 49.69221085 -136.95296783 48.77114044 -137.27485657 47.82215881 C-139.02751242 42.40866186 -139.90732628 37.92986894 -139.43359375 32.234375 C-137.87109375 29.734375 -137.87109375 29.734375 -135.43359375 28.234375 C-131.54361284 27.66855959 -129.34605307 27.70324727 -125.92626953 29.69384766 C-122.49368349 33.19232859 -121.44608396 36.77105084 -119.98828125 41.3828125 C-119.69172638 42.27296051 -119.39517151 43.16310852 -119.08963013 44.08023071 C-118.14704797 46.91841959 -117.22695708 49.76326735 -116.30859375 52.609375 C-115.37900443 55.44681509 -114.44475284 58.28263029 -113.50613403 61.11709595 C-112.92449764 62.87806835 -112.34873461 64.64099501 -111.77975464 66.40609741 C-109.26604798 74.94391252 -109.26604798 74.94391252 -103.43359375 81.234375 C-100.87294705 82.00116975 -98.33496067 82.70671947 -95.74609375 83.359375 C-95.04419922 83.54113281 -94.34230469 83.72289062 -93.61914062 83.91015625 C-91.89193107 84.35664579 -90.16292919 84.7961916 -88.43359375 85.234375 C-88.32273438 84.17476563 -88.211875 83.11515625 -88.09765625 82.0234375 C-86.92873783 75.35372652 -83.14164931 70.21567778 -77.74609375 66.171875 C-74.43359375 64.234375 -74.43359375 64.234375 -71.43359375 64.234375 C-71.49160156 63.12320313 -71.54960937 62.01203125 -71.609375 60.8671875 C-71.9343785 52.03047141 -72.09967109 44.55777996 -66.43359375 37.234375 C-63.70964161 34.33409561 -61.04212605 31.83575005 -57.28125 30.4296875 C-55.16134927 29.35025478 -55.16134927 29.35025478 -54.74609375 26.6953125 C-54.64296875 25.67695313 -54.53984375 24.65859375 -54.43359375 23.609375 C-53.13363373 14.29855027 -49.38673751 7.62125894 -42.43359375 1.234375 C-29.87727653 -7.81009725 -12.92644138 -9.37841333 0 0 Z " fill="#393839" transform="translate(276.43359375,159.765625)"/>
<path d="M0 0 C0.76534339 -0.00205263 1.53068678 -0.00410527 2.31922239 -0.0062201 C4.91075121 -0.01192177 7.50222741 -0.01042897 10.09376144 -0.00901413 C11.95974659 -0.01159596 13.82573118 -0.0146086 15.691715 -0.01801753 C20.84052832 -0.02611228 25.98932771 -0.02787848 31.13814664 -0.028615 C36.6829308 -0.03046127 42.22770767 -0.03800645 47.77248764 -0.04475021 C59.90668163 -0.05835175 72.04087232 -0.06436112 84.17507267 -0.06876087 C91.74690509 -0.07152029 99.31873623 -0.0757571 106.89056778 -0.08026505 C127.84070497 -0.09246023 148.79084147 -0.10279436 169.74098206 -0.10614014 C171.09628335 -0.10636177 172.45158465 -0.10658355 173.80688594 -0.10680549 C175.16549451 -0.10702613 176.52410308 -0.10724661 177.88271165 -0.10746694 C180.60839605 -0.10790949 183.33408046 -0.10835661 186.05976486 -0.10880661 C187.07348498 -0.1089707 187.07348498 -0.1089707 188.1076843 -0.1091381 C210.02371444 -0.11276918 231.93971151 -0.12869042 253.85572899 -0.15199697 C277.01744567 -0.1765833 300.17914418 -0.19030569 323.34087634 -0.19150805 C335.97026678 -0.19242599 348.59961392 -0.19820797 361.22899246 -0.21632767 C371.98232052 -0.23170097 382.73559193 -0.23686554 393.48892888 -0.22858956 C398.97820108 -0.22467318 404.46735908 -0.2256607 409.95661736 -0.23964691 C414.97896634 -0.25232675 420.00111463 -0.25124062 425.0234631 -0.2390562 C426.84315 -0.23708889 428.66285083 -0.24022498 430.48251811 -0.24890056 C432.95146636 -0.25992908 435.41969826 -0.25255062 437.8886261 -0.24050903 C438.59906081 -0.24810423 439.30949551 -0.25569942 440.04145855 -0.26352477 C445.49040618 -0.20595 449.56419761 1.12476701 453.55927658 4.88533401 C454.03751877 5.48216995 454.51576096 6.07900589 455.00849533 6.69392776 C455.49962814 7.29334183 455.99076096 7.89275589 456.49677658 8.51033401 C464.95719173 19.94705156 458.69599533 36.90549606 458.69599533 51.13142776 C300.95599533 51.13142776 143.21599533 51.13142776 -19.30400467 51.13142776 C-19.30400467 10.1601359 -19.30400467 10.1601359 -13.67119217 4.48689651 C-8.75919929 0.6421691 -6.11025691 -0.01502075 0 0 Z " fill="#4B83C5" transform="translate(36.30400466918945,16.868572235107422)"/>
<path d="M0 0 C12.21 0 24.42 0 37 0 C37 41.91 37 83.82 37 127 C21.64074272 123.58683171 11.76287811 117.65798581 2.79296875 104.87109375 C-2.69999137 96.07517721 -5.29662178 86.24416158 -5.30639648 75.91918945 C-5.31472 75.15552063 -5.32304352 74.39185181 -5.33161926 73.6050415 C-5.35550642 71.10773478 -5.36446122 68.61068968 -5.37109375 66.11328125 C-5.38007027 64.36549303 -5.38919229 62.61770556 -5.39845276 60.86991882 C-5.414883 57.21949399 -5.42263301 53.5691603 -5.42553711 49.91870117 C-5.43094119 45.24447545 -5.46872942 40.57110557 -5.51428127 35.89712238 C-5.54402255 32.29313516 -5.55125988 28.68935587 -5.55226326 25.08525658 C-5.55646475 23.36166617 -5.5688963 21.63807509 -5.58978081 19.91460609 C-5.61666017 17.50663415 -5.61188382 15.10067264 -5.59936523 12.69262695 C-5.61419952 11.98446335 -5.62903381 11.27629974 -5.64431763 10.54667664 C-5.55844226 4.74143066 -4.61795129 4.61795129 0 0 Z " fill="#A44B5C" transform="translate(210,239)"/>
<path d="M0 0 C36 0 36 0 41 3 C42.48454066 5.96908132 42.16465999 9.00015157 42.17700195 12.25683594 C42.18685875 13.37933998 42.18685875 13.37933998 42.19691467 14.52452087 C42.21668241 17.01113996 42.22832608 19.49769815 42.23828125 21.984375 C42.24235678 22.83663918 42.2464323 23.68890335 42.25063133 24.56699371 C42.27151993 29.08941913 42.28580211 33.61181408 42.29516602 38.13427734 C42.30615706 42.77401255 42.34046291 47.41325836 42.38033772 52.05282211 C42.40669594 55.64429516 42.41487536 59.23565587 42.41844749 62.8272171 C42.42327448 64.53498846 42.43477527 66.24275614 42.45348549 67.95043182 C42.6338557 85.52398088 39.51198052 100.74501729 27 114 C19.49098097 120.15460711 10.09517316 127 0 127 C0 85.09 0 43.18 0 0 Z " fill="#A44B5C" transform="translate(265,239)"/>
<path d="M0 0 C3.38747363 0.5750852 4.894129 1.56801299 7.17651367 4.10668945 C7.7805452 4.76622116 8.38457672 5.42575287 9.00691223 6.10527039 C9.65818588 6.82978897 10.30945953 7.55430756 10.98046875 8.30078125 C17.16275419 15.02522384 23.48744252 21.56344159 29.98828125 27.98046875 C30.83317108 28.81724152 31.67806091 29.65401428 32.54855347 30.5161438 C36.02359781 33.95584493 39.50249303 37.39152616 42.98999023 40.81860352 C45.57947782 43.36585443 48.15948882 45.92239711 50.73828125 48.48046875 C51.91938225 49.63363838 51.91938225 49.63363838 53.12434387 50.81010437 C57.87519256 55.53843983 61.54479041 59.48838316 62.4375 66.375 C61.76778326 71.92408158 59.5640575 76.0188605 56.125 80.375 C51.92612767 83.58590237 47.3025045 84.56278486 42.03637695 84.35514832 C32.81722586 82.74730946 25.4645609 72.84290261 19.1875 66.48046875 C17.96647974 65.25384457 16.74478899 64.02788749 15.52246094 62.80256653 C12.32652437 59.59524388 9.13970534 56.37901188 5.95477295 53.1607666 C2.69541484 49.87057246 -0.57258523 46.58898623 -3.83984375 43.30664062 C-10.23499501 36.87943542 -16.62053638 30.44277398 -23 24 C-20.55831566 20.89965966 -18.21830886 18.15581799 -15.1875 15.625 C-9.60917179 10.84654381 -4.44588325 5.86856589 0 0 Z " fill="#718592" transform="translate(399,411)"/>
<path d="M0 0 C1.2684375 -0.00478363 2.536875 -0.00956726 3.84375 -0.01449585 C6.52430824 -0.01789684 9.20258142 -0.01121028 11.8828125 0.01220703 C15.30975855 0.04069708 18.73474681 0.02428549 22.16162109 -0.00565529 C25.44114993 -0.02811794 28.72044556 -0.01236811 32 0 C33.2271875 -0.01012115 34.454375 -0.02024231 35.71875 -0.03067017 C40.56945944 0.03611756 44.00690674 0.12696652 48.3125 2.45556641 C50 5.6640625 50 5.6640625 50 17.6640625 C27.56 17.6640625 5.12 17.6640625 -18 17.6640625 C-18 5.6640625 -18 5.6640625 -16.3125 2.45556641 C-11.03871257 -0.39666327 -5.90306744 -0.04868519 0 0 Z " fill="#A34B5C" transform="translate(240,204.3359375)"/>
<path d="M0 0 C1.86936218 -0.00361794 1.86936218 -0.00361794 3.77648926 -0.00730896 C7.08268124 -0.00607986 10.38768042 0.01895467 13.69366455 0.0524292 C15.71711325 0.06639495 17.7397217 0.06282619 19.76318359 0.05249023 C23.65501228 0.03371783 27.54569195 0.04314286 31.4375 0.0625 C33.24547058 0.0550602 33.24547058 0.0550602 35.08996582 0.04747009 C43.39014254 0.16434416 43.39014254 0.16434416 47.45898438 2.44555664 C49.90617375 5.48179617 50.14984114 7.77001013 50.21875 11.62890625 C49.11666992 15.02698651 48.29777124 15.57622542 45.21875 17.62890625 C42.68972778 17.90306091 42.68972778 17.90306091 39.63330078 17.93530273 C38.48846222 17.95129013 37.34362366 17.96727753 36.16409302 17.98374939 C34.92658295 17.98911209 33.68907288 17.99447479 32.4140625 18 C31.1427951 18.00902847 29.87152771 18.01805695 28.56173706 18.02735901 C25.86995279 18.04188024 23.17859348 18.05154797 20.48681641 18.05444336 C17.0442933 18.05982516 13.60294483 18.09749571 10.16075325 18.14318752 C6.87025954 18.18015671 3.579736 18.18147427 0.2890625 18.1875 C-1.56112991 18.21679848 -1.56112991 18.21679848 -3.44869995 18.24668884 C-12.96740075 18.19643263 -12.96740075 18.19643263 -16.05908203 15.31274414 C-18.35206264 11.73934807 -18.52579512 9.79835893 -17.78125 5.62890625 C-13.43367705 -1.06506304 -7.38835743 -0.08127045 0 0 Z " fill="#373838" transform="translate(427.78125,33.37109375)"/>
<path d="M0 0 C3.85451709 2.04797236 6.66296239 4.53659981 8.87109375 8.2734375 C9.36609375 12.2334375 9.36609375 12.2334375 9.87109375 16.2734375 C-1.34890625 16.2734375 -12.56890625 16.2734375 -24.12890625 16.2734375 C-23.07129275 7.81252952 -22.03693111 5.72169473 -16.00390625 0.3984375 C-10.91012501 -1.59478125 -5.21074557 -1.77834619 0 0 Z " fill="#A14B5B" transform="translate(263.12890625,171.7265625)"/>
<path d="M0 0 C1.22332031 -0.03738281 2.44664063 -0.07476562 3.70703125 -0.11328125 C7.78566893 0.38567667 9.36067076 1.38135972 12.1875 4.3125 C13.25 7.75 13.25 7.75 13.1875 11.3125 C11.42108828 14.11439446 10.15700178 15.82774911 7.1875 17.3125 C4.71193304 17.48932621 2.29000105 17.58980822 -0.1875 17.625 C-0.86039063 17.65400391 -1.53328125 17.68300781 -2.2265625 17.71289062 C-5.62739059 17.75640516 -7.47117605 17.5676645 -10.2265625 15.5078125 C-12.47758822 12.39186064 -12.8125 10.13609619 -12.8125 6.3125 C-9.18759496 0.56265063 -6.56369588 0.13058662 0 0 Z " fill="#37393A" transform="translate(46.8125,33.6875)"/>
<path d="M0 0 C3.39469781 1.21488329 3.88567556 1.86054856 6 5 C6.37703343 8.21322517 6.18706578 10.9814613 5 14 C2.51263049 16.7658064 0.99044627 17.00110465 -2.75 17.43359375 C-4.16656311 17.45077222 -5.58340305 17.45161464 -7 17.4375 C-7.7115625 17.45748047 -8.423125 17.47746094 -9.15625 17.49804688 C-12.6106331 17.4948245 -14.63657171 17.26263598 -17.46484375 15.21875 C-19.34686379 12.49868032 -19.64537312 10.26080055 -19.41796875 6.97265625 C-19 5 -19 5 -17.375 2 C-11.8534071 -1.27205505 -6.24059927 -0.88214078 0 0 Z " fill="#37383A" transform="translate(139,34)"/>
<path d="M0 0 C4.63309353 2.26618705 4.63309353 2.26618705 6 5 C6.48006117 9.2405403 6.57731798 11.2437793 3.9453125 14.69140625 C0.23517971 17.59948116 -1.830182 17.67169818 -6.5 17.625 C-8.43359375 17.64433594 -8.43359375 17.64433594 -10.40625 17.6640625 C-14.81216976 16.84992515 -16.29068379 15.50677532 -19 12 C-19.75123045 7.79310949 -19.44098839 5.79717131 -17.375 2.0625 C-11.99082715 -1.22782785 -6.15045455 -0.8542298 0 0 Z " fill="#373839" transform="translate(96,34)"/>
</svg>
