<?xml version="1.0" encoding="UTF-8"?>
<svg version="1.1" xmlns="http://www.w3.org/2000/svg" width="512" height="512">
<path d="M0 0 C5.908051 4.33577402 10.34543533 9.31111301 14.60302734 15.20567322 C23.73732719 27.72246436 34.72021542 42.41854064 50.83508205 45.36538696 C67.37362729 47.77076748 84.39146868 46.51505775 100.99768066 45.4619751 C126.81404364 43.9407357 152.21306284 53.38404636 172 70 C180.3552629 77.47313355 188.1720803 85.36924676 194 95 C194.86818359 96.34384766 194.86818359 96.34384766 195.75390625 97.71484375 C210.93163408 122.13688961 214.55619491 152.04718286 208.49169922 179.90380859 C202.2144822 206.66457589 185.44158535 230.77893185 162.4765625 245.90625 C141.83750398 258.59992225 120.24916911 264.21733401 96.0859375 264.09765625 C94.44245834 264.09553383 94.44245834 264.09553383 92.76577759 264.09336853 C89.30215605 264.08781771 85.83860166 264.07527459 82.375 264.0625 C80.01171969 264.05747864 77.64843836 264.05291685 75.28515625 264.04882812 C69.52341499 264.03786444 63.7617123 264.02117606 58 264 C58.27714844 264.53109375 58.55429688 265.0621875 58.83984375 265.609375 C59.20207031 266.31578125 59.56429687 267.0221875 59.9375 267.75 C60.29714844 268.44609375 60.65679687 269.1421875 61.02734375 269.859375 C64.40978986 277.30347327 63.93042092 286.11143462 61.4375 293.75 C57.87296203 302.3694751 52.72201381 307.19213532 44.33203125 311.08984375 C36.87644716 313.99964457 28.45591502 314.20142612 20.875 311.5625 C12.50489328 307.53411583 6.72220461 301.15471405 1.34597778 293.76876831 C-7.78453854 281.34812701 -18.72947678 266.63827926 -34.74052525 263.624547 C-44.06885872 262.22215004 -53.46907445 262.26331188 -62.875 262.5625 C-63.95727812 262.59433443 -63.95727812 262.59433443 -65.06142044 262.62681198 C-92.84494896 263.46771648 -92.84494896 263.46771648 -117 276 C-117.63550781 276.50015625 -118.27101563 277.0003125 -118.92578125 277.515625 C-127.29758839 284.86648005 -132.38787746 297.19786663 -133.24609375 308.13671875 C-133.75934263 322.27439233 -129.58759316 334.30410671 -120.26171875 344.9921875 C-108.42941352 356.39376642 -93.47268471 359.22582454 -77.64453125 359.4140625 C-76.61688156 359.43342865 -75.58923187 359.4527948 -74.53044128 359.4727478 C-71.2912084 359.53188835 -68.0519387 359.57866369 -64.8125 359.625 C-62.59829294 359.66324024 -60.38409979 359.70229535 -58.16992188 359.7421875 C-52.78007267 359.83753474 -47.39013763 359.92276789 -42 360 C-42.41028442 359.20009644 -42.41028442 359.20009644 -42.82885742 358.3840332 C-43.18826416 357.67593506 -43.5476709 356.96783691 -43.91796875 356.23828125 C-44.2739917 355.54001221 -44.63001465 354.84174316 -44.99682617 354.12231445 C-48.86070854 345.94788529 -48.57081385 337.45891916 -45.9375 328.875 C-42.48292549 320.78664526 -36.21023252 315.51138444 -28.39453125 311.875 C-19.95651832 308.79161518 -11.132421 309.24111937 -3 313 C2.51419283 316.48494149 6.47278034 320.5261 10.39701843 325.70118713 C22.11401393 341.14130873 35.8954447 358.19040696 55.81829834 361.88241577 C71.05381205 363.84428496 86.47680988 363.20623828 101.77230835 362.32645226 C108.79539227 361.93094003 115.81852677 361.77862372 122.85061646 361.63970184 C137.24666173 361.35019868 151.62207797 360.77725501 166 360 C166.45137329 358.59669434 166.45137329 358.59669434 166.91186523 357.16503906 C170.1571057 347.72566338 177.11322511 340.01560912 184 333 C184.67546875 332.30003906 185.3509375 331.60007812 186.046875 330.87890625 C200.70805973 316.74133526 220.97251673 311.14468139 240.89453125 310.96484375 C259.42629684 311.76044835 275.90961363 317.98255318 290 330 C291.22203125 330.93392578 291.22203125 330.93392578 292.46875 331.88671875 C305.60199466 342.85135665 314.42934953 360.21243746 317 377 C318.73764541 399.93730381 315.39939645 420.9905396 301 439.5 C299.68723964 441.01803756 298.35479944 442.51935951 297 444 C296.40960938 444.68191406 295.81921875 445.36382812 295.2109375 446.06640625 C282.24421437 460.16426906 262.92974362 468.32553413 244.00390625 469.3203125 C232.73845566 469.67455247 222.70195139 468.49848127 212 465 C211.08089844 464.71125 210.16179687 464.4225 209.21484375 464.125 C191.6727276 457.89768777 176.52354746 443.30419015 168.3684082 426.79467773 C167.92334427 425.89619614 167.47828033 424.99771454 167.01972961 424.07200623 C166.68321884 423.38824417 166.34670807 422.70448212 166 422 C150.95704301 421.00426344 135.91558209 420.27155277 120.84678841 419.82388878 C113.84149327 419.6100929 106.85717038 419.32014557 99.86523438 418.83154297 C64.56385546 415.86391777 64.56385546 415.86391777 33.53308034 430.00377631 C24.35819651 438.11717831 16.21166392 447.34920852 8.81202316 457.09764481 C3.74107517 463.69873035 -1.66419587 468.30409613 -10 470 C-20.53935845 470.80969882 -29.11136692 469.86134636 -37.75 463.5 C-44.3270326 457.31260203 -47.7501611 448.50493566 -48.109375 439.6015625 C-47.82883463 432.92870941 -46.0044874 427.92663931 -43 422 C-43.62401703 421.99413376 -44.24803406 421.98826752 -44.89096069 421.98222351 C-51.47934067 421.91749958 -58.06726712 421.83289468 -64.65527344 421.73754883 C-67.10280314 421.70461738 -69.550403 421.6764905 -71.99804688 421.65356445 C-108.22198082 421.3052574 -138.05224054 414.12108978 -164.8125 388.5625 C-175.58247689 377.31385747 -184.05302539 364.14817856 -189.3125 349.5 C-189.54283936 348.86102783 -189.77317871 348.22205566 -190.01049805 347.5637207 C-193.96406646 335.85680564 -195.5127671 324.39028019 -195.375 312.0625 C-195.36484863 310.74362793 -195.35469727 309.42475586 -195.34423828 308.06591797 C-194.95087582 283.43045034 -186.39676998 259.62271773 -170 241 C-169.33613281 240.19304687 -168.67226562 239.38609375 -167.98828125 238.5546875 C-149.81867842 217.12731854 -122.94714756 204.59479567 -95.15771484 202.13005066 C-90.79019403 201.95017407 -86.56463281 202.36712016 -82.22137451 202.80635071 C-48.84000425 206.54837532 -48.84000425 206.54837532 -18.91282654 194.43382263 C-9.14831072 186.07986615 -0.62026127 176.20622448 7.07220459 165.94389343 C12.40698253 158.95692806 18.31088678 154.83946685 27 153 C36.80574598 152.03055024 45.5644745 153.92640284 53.375 160.125 C58.6194184 165.10019774 62.61716484 172.52522181 63.23828125 179.78515625 C63.41173692 187.44459363 62.45705085 193.15531699 59 200 C58.67 200.66 58.34 201.32 58 202 C65.18628551 201.95806977 72.37181285 201.88549128 79.55761719 201.79248047 C81.99765161 201.76440813 84.43777465 201.74312593 86.87792969 201.72900391 C90.40345179 201.70738378 93.92792364 201.66063499 97.453125 201.609375 C98.5286261 201.60814636 99.6041272 201.60691772 100.71221924 201.60565186 C114.80801701 201.33843682 127.46118608 196.06279144 137.3125 185.875 C145.60158847 175.81575711 149.54637238 163.57244411 148.8046875 150.578125 C146.9813948 136.4558943 141.15588106 125.65791705 130.14453125 116.5625 C110.56242086 102.29502431 75.49205581 101.69796822 52.55761719 104.93701172 C33.72999248 108.98233816 19.3124356 128.36374612 8.18240356 142.87818909 C2.43213476 150.24031026 -3.66903647 154.4871763 -13 156 C-22.1118829 156.61775477 -30.02375703 154.56543457 -37.1796875 148.7421875 C-44.45239689 141.78161156 -47.29425272 134.95741874 -47.96484375 124.99609375 C-48.03158851 119.30795709 -46.49173617 114.81880584 -43.91796875 109.765625 C-43.37885864 108.70263184 -43.37885864 108.70263184 -42.82885742 107.61816406 C-42.55533447 107.08416992 -42.28181152 106.55017578 -42 106 C-42.66076727 106.00368717 -43.32153454 106.00737434 -44.00232506 106.01117325 C-60.11203867 106.09967537 -76.22166721 106.16578282 -92.33156395 106.20724869 C-100.12233612 106.22783648 -107.91294558 106.25588421 -115.70361328 106.30175781 C-122.49735364 106.34174201 -129.29097611 106.36746029 -136.08483088 106.37635398 C-139.67911229 106.38154926 -143.27305656 106.39367985 -146.86722946 106.42292023 C-150.88868645 106.4553686 -154.90956471 106.45595204 -158.93115234 106.45410156 C-160.11079559 106.46848267 -161.29043884 106.48286377 -162.50582886 106.49768066 C-171.25601445 106.45424003 -177.91106561 104.67353402 -185.25 99.875 C-193.27019285 91.49025293 -195.48786685 83.29049432 -195.2734375 72.0234375 C-194.90468595 64.13361467 -191.28183061 58.48792394 -185.99609375 52.79296875 C-179.64619024 47.08923938 -173.01105811 44.90017548 -164.57731628 44.84178162 C-162.96410995 44.82709839 -162.96410995 44.82709839 -161.3183136 44.81211853 C-160.14874619 44.80636307 -158.97917877 44.8006076 -157.77416992 44.79467773 C-156.53473633 44.78477814 -155.29530273 44.77487854 -154.01831055 44.76467896 C-150.62822408 44.73853918 -147.23816055 44.71665744 -143.84803557 44.69667697 C-140.30192934 44.67476763 -136.75586527 44.64740321 -133.20979309 44.62062073 C-126.49865691 44.57076061 -119.78749723 44.52579708 -113.07631522 44.48259836 C-105.43423706 44.43316879 -97.79220121 44.37827192 -90.15016401 44.32291877 C-74.43348181 44.20920133 -58.71676065 44.10234011 -43 44 C-43.42129684 43.07713196 -43.42129684 43.07713196 -43.85110474 42.13562012 C-44.21622162 41.32709595 -44.5813385 40.51857178 -44.95751953 39.68554688 C-45.32088409 38.88467651 -45.68424866 38.08380615 -46.05862427 37.25866699 C-48.97936958 30.2508477 -48.64246035 22.03844276 -46 15 C-42.07443472 6.53107556 -36.84412084 1.05192142 -28.375 -2.875 C-18.98027464 -5.96342349 -8.47888533 -4.92052258 0 0 Z " fill="#010100" transform="translate(195,23)"/>
<path d="M0 0 C7.43401395 -0.0767308 14.86792393 -0.12888264 22.30224609 -0.16479492 C24.82572242 -0.179783 27.34917313 -0.20018036 29.87255859 -0.22631836 C60.6050239 -0.53644019 85.99024229 5.46737511 108.62109375 27.55859375 C128.4397123 48.34250271 134.60235984 72.61758857 134.2734375 100.5234375 C134.04992391 108.22248475 132.77614004 114.77217977 130 122 C129.75862305 122.64582031 129.51724609 123.29164063 129.26855469 123.95703125 C125.46633245 133.9623758 120.55243526 142.53452857 114 151 C113.38640625 151.79792969 112.7728125 152.59585938 112.140625 153.41796875 C97.5127499 171.07768976 75.52146937 181.87557517 53 185 C50.36793132 185.0935621 47.76187899 185.14380296 45.13037109 185.1418457 C44.36538803 185.14532013 43.60040497 185.14879456 42.8122406 185.15237427 C41.16063529 185.15969385 39.50902039 185.16505933 37.8574028 185.16866493 C35.24295933 185.17586519 32.62869976 185.19155509 30.01431274 185.21000671 C22.58443607 185.26233134 15.15466668 185.31049901 7.72460938 185.32592773 C3.17227167 185.33599849 -1.37959278 185.36528862 -5.93174362 185.40724754 C-7.66445719 185.41956426 -9.39723752 185.42467757 -11.12999344 185.42244911 C-13.55023237 185.42010071 -15.96910564 185.44222149 -18.38916016 185.4699707 C-19.10406113 185.46336929 -19.8189621 185.45676788 -20.55552673 185.44996643 C-23.91109635 185.5132063 -25.71834434 185.78897972 -28.43539429 187.82463074 C-30.24592436 190.02122577 -30.24592436 190.02122577 -30.64453125 193.3359375 C-29.75980728 198.36545923 -27.4047984 200.32249047 -23.6875 203.625 C-14.57058672 212.00110234 -14.57058672 212.00110234 -13.49609375 217.6484375 C-13.38645247 222.75041189 -13.49317739 226.12303877 -16.875 230.125 C-20.16867884 233.45050182 -22.4509234 234.22267475 -27.125 234.4375 C-28.03507812 234.49808594 -28.94515625 234.55867187 -29.8828125 234.62109375 C-38.6915599 232.86596739 -45.62732996 223.66727198 -51.703125 217.5625 C-52.71314911 216.55382653 -53.72346965 215.54544982 -54.73406982 214.53735352 C-56.83834405 212.43600911 -58.93900633 210.33113836 -61.03710938 208.22363281 C-63.71554054 205.5337789 -66.40289297 202.85304569 -69.09300613 200.17488098 C-71.17622234 198.09891639 -73.25462157 196.01818158 -75.33162689 193.93600464 C-76.32045842 192.94584727 -77.31075472 191.95715031 -78.30258942 190.97000122 C-79.689986 189.5877276 -81.07022749 188.19828381 -82.45019531 186.80859375 C-83.23436829 186.02282959 -84.01854126 185.23706543 -84.82647705 184.42749023 C-88.43800487 180.39397013 -91.57019814 176.69652261 -91.625 171.125 C-91.67527344 169.95324219 -91.67527344 169.95324219 -91.7265625 168.7578125 C-89.45648173 160.14126938 -80.65587907 153.36133121 -74.5625 147.296875 C-73.55382653 146.28685089 -72.54544982 145.27653035 -71.53735352 144.26593018 C-69.43600911 142.16165595 -67.33113836 140.06099367 -65.22363281 137.96289062 C-62.5337789 135.28445946 -59.85304569 132.59710703 -57.17488098 129.90699387 C-55.09891639 127.82377766 -53.01818158 125.74537843 -50.93600464 123.66837311 C-49.94584727 122.67954158 -48.95715031 121.68924528 -47.97000122 120.69741058 C-46.5877276 119.310014 -45.19828381 117.92977251 -43.80859375 116.54980469 C-43.02282959 115.76563171 -42.23706543 114.98145874 -41.42749023 114.17352295 C-36.07305359 109.37927465 -32.43935025 107.36001798 -25.33203125 107.6796875 C-21.03750537 108.26955538 -18.87033889 110.24727447 -15.6875 113 C-13.0864795 117.62403644 -13.06459599 121.82604659 -14 127 C-15.99850329 131.27804611 -19.22021584 134.26663157 -22.625 137.46875 C-23.5325 138.3246875 -24.44 139.180625 -25.375 140.0625 C-26.68597656 141.22458984 -26.68597656 141.22458984 -28.0234375 142.41015625 C-30.28260913 144.93999129 -30.28260913 144.93999129 -30.5390625 148.55859375 C-29.90183347 152.62670085 -29.24443618 153.55552575 -26 156 C-22.68363397 156.59338331 -22.68363397 156.59338331 -18.91162109 156.48583984 C-18.20533569 156.48963654 -17.49905029 156.49343323 -16.7713623 156.49734497 C-14.43826737 156.50474811 -12.10642175 156.48336054 -9.7734375 156.4609375 C-8.14401394 156.45855119 -6.51458758 156.45764815 -4.88516235 156.4581604 C-1.46704917 156.45503201 1.95064471 156.43847392 5.36865234 156.41162109 C9.72612733 156.37780297 14.08313832 156.36998811 18.44072914 156.37151146 C21.80903464 156.37096421 25.17724092 156.35993794 28.54551315 156.34550858 C30.15048854 156.33918976 31.75547506 156.33521334 33.36046219 156.33372116 C53.96070454 156.29363058 71.95593845 151.81061383 87.3125 137.1875 C91.76399475 132.52470012 95.07791614 127.73077343 98 122 C98.46277344 121.10152344 98.92554688 120.20304687 99.40234375 119.27734375 C106.81542046 103.99995958 106.80454163 87.19181825 102 71 C95.94442664 55.59028894 85.83404925 42.999518 70.91796875 35.4375 C67.96528477 34.16394183 65.04790334 33.02595272 62 32 C61.32148987 31.75488174 60.64297974 31.50976349 59.94390869 31.25721741 C53.04482596 28.93860073 46.67151783 28.53005686 39.4296875 28.48828125 C38.26744659 28.47033005 37.10520569 28.45237885 35.90774536 28.43388367 C32.23019944 28.38011295 28.55278081 28.34599132 24.875 28.3125 C22.36716991 28.27929765 19.85935655 28.24480533 17.3515625 28.20898438 C11.23448926 28.12440572 5.11739884 28.05591641 -1 28 C-0.67475342 26.92766113 -0.34950684 25.85532227 -0.0144043 24.75048828 C0.74897559 21.92809554 1.24997798 19.84971654 1.23046875 16.9921875 C1.22853516 16.31542969 1.22660156 15.63867188 1.22460938 14.94140625 C1.21236328 14.25949219 1.20011719 13.57757813 1.1875 12.875 C1.18685547 12.18535156 1.18621094 11.49570313 1.18554688 10.78515625 C1.1534706 7.05718036 0.78516429 3.6348603 0 0 Z " fill="#0491FA" transform="translate(255,85)"/>
<path d="M0 0 C1.14145981 0.00141495 2.28291962 0.0028299 3.45896912 0.00428772 C7.07553824 0.00984874 10.69204359 0.02239394 14.30859375 0.03515625 C16.77278556 0.04017629 19.23697835 0.04473831 21.70117188 0.04882812 C27.71616729 0.05980538 33.73112596 0.07650431 39.74609375 0.09765625 C39.42157227 1.18570557 39.09705078 2.27375488 38.76269531 3.39477539 C37.78132752 6.96932036 37.47803305 9.84625737 37.49609375 13.53515625 C37.4909375 14.58574219 37.48578125 15.63632812 37.48046875 16.71875 C37.69490218 19.44646933 38.08234918 21.68761357 38.76269531 24.30883789 C39.24947754 26.18430298 39.24947754 26.18430298 39.74609375 28.09765625 C39.14855789 28.10352249 38.55102203 28.10938873 37.93537903 28.11543274 C31.65592378 28.17989833 25.37695616 28.26444737 19.09790039 28.36010742 C16.76170321 28.39314325 14.42543031 28.4212399 12.08911133 28.4440918 C-12.09193866 28.68698758 -31.02741348 31.36587363 -49.17578125 48.9609375 C-62.42617837 63.12010079 -65.77915486 78.74790601 -65.53125 97.421875 C-64.93553054 115.23714694 -56.89357248 129.0442774 -44.25390625 141.09765625 C-41.06891909 143.73334154 -37.80313127 145.98286243 -34.25390625 148.09765625 C-33.48820312 148.56816406 -32.7225 149.03867187 -31.93359375 149.5234375 C-19.54419 156.45414356 -5.33157315 156.56527517 8.4765625 156.53125 C10.12706209 156.53582454 11.77755979 156.54113384 13.42805481 156.5471344 C16.85258842 156.55598262 20.27688765 156.5537308 23.70141602 156.54370117 C28.08737406 156.53210517 32.47253957 156.55262511 36.85839367 156.58161831 C40.25131834 156.59993937 43.6440504 156.59969809 47.0370121 156.59398079 C48.65533896 156.59382769 50.27367895 156.59986262 51.89195824 156.61227226 C54.14357667 156.62713779 56.39369264 156.61654754 58.64526367 156.59936523 C59.9235051 156.59919907 61.20174652 156.5990329 62.51872253 156.59886169 C66.30571055 156.01074868 67.48985584 155.14217942 69.74609375 152.09765625 C70.51233814 149.18394425 70.51233814 149.18394425 69.74609375 146.09765625 C68.07110897 143.84478706 66.53206086 142.04325669 64.55859375 140.09765625 C63.58460194 139.09895703 62.61194046 138.09895863 61.640625 137.09765625 C61.16069092 136.60450928 60.68075684 136.1113623 60.1862793 135.60327148 C55.78467855 131.00169972 53.02609076 127.73074374 52.6875 121.19921875 C52.81890371 116.4862057 54.55834973 114.0278591 57.80859375 110.78515625 C61.28635515 107.98704053 63.94211229 107.44686541 68.33984375 107.49609375 C77.0928212 109.68433811 82.92846975 116.85832226 89.04296875 123.03125 C90.1238578 124.11265851 91.20526733 125.19354702 92.28717041 126.27394104 C94.54435139 128.53121137 96.79630929 130.79352481 99.04443359 133.05981445 C101.91969929 135.95780671 104.8059509 138.84455151 107.69596481 141.72782803 C109.92688805 143.95540369 112.15278197 146.1879495 114.37711334 148.42210579 C115.43947861 149.48830665 116.50317925 150.55317875 117.56826019 151.61666679 C119.05669101 153.104725 120.53843241 154.59914211 122.01855469 156.09545898 C122.86125916 156.94277084 123.70396362 157.7900827 124.57220459 158.66307068 C128.1660728 162.68792155 130.19781211 165.96753757 130.37109375 171.41015625 C130.45230469 172.73466797 130.45230469 172.73466797 130.53515625 174.0859375 C128.25182286 182.80103673 117.99414642 190.02944297 111.73828125 196.30859375 C110.96292715 197.08818892 110.96292715 197.08818892 110.17190933 197.88353348 C107.4455701 200.62474129 104.71646526 203.36315786 101.98486328 206.09912109 C99.17273299 208.91677178 96.37003005 211.74361233 93.56933403 214.5726223 C91.40218698 216.75839528 89.22835872 218.93742919 87.05264664 221.11467361 C86.01596651 222.1543721 84.98177803 223.1965614 83.9501915 224.24131393 C82.51009195 225.69850102 81.06078797 227.14589304 79.60888672 228.59130859 C78.37813919 229.82752457 78.37813919 229.82752457 77.12252808 231.0887146 C73.64150149 234.03143396 70.80706065 234.98191441 66.30859375 235.47265625 C61.21920201 234.9369308 58.27551203 232.83802878 54.93359375 229.03515625 C52.50155359 225.06709073 51.87954223 220.6371142 52.74609375 216.09765625 C55.82091829 210.65418697 59.97853839 206.79423747 64.58789062 202.68554688 C67.43302205 199.99554034 68.66491141 198.34390037 69.921875 194.53125 C70.06342423 190.995436 70.06342423 190.995436 67.71844482 188.42030334 C64.08139746 185.57825095 61.44117909 185.40906759 57.01269531 185.50170898 C55.86750175 185.49562119 55.86750175 185.49562119 54.69917297 185.4894104 C53.04484289 185.48390167 51.39044317 185.48987792 49.73618317 185.50607109 C47.1010335 185.53159565 44.4674412 185.52665516 41.83221436 185.51417542 C36.22000287 185.49343501 30.60827324 185.51303407 24.99609375 185.53515625 C18.52757506 185.55639429 12.05956637 185.56048303 5.59105682 185.53465462 C3.02486302 185.53134749 0.45969046 185.55234289 -2.10638428 185.57505798 C-15.69640345 185.59891463 -29.5446732 184.00685299 -41.62890625 177.28515625 C-42.28624756 176.93461182 -42.94358887 176.58406738 -43.62084961 176.22290039 C-45.51094206 175.20192224 -47.38214624 174.15172796 -49.25390625 173.09765625 C-50.69830078 172.33195312 -50.69830078 172.33195312 -52.171875 171.55078125 C-72.17017042 160.08942435 -85.62689946 139.28199068 -92.31640625 117.6640625 C-98.80766978 92.6664563 -95.36125735 67.41881618 -82.40527344 45.12744141 C-70.14876196 24.80443516 -51.57484159 10.51352838 -29.06640625 3.28515625 C-28.42533936 3.07793945 -27.78427246 2.87072266 -27.1237793 2.65722656 C-18.22174296 -0.03781239 -9.23451618 -0.0436871 0 0 Z " fill="#FDD200" transform="translate(111.25390625,241.90234375)"/>
<path d="M0 0 C17.0041739 -1.12477408 32.60499167 3.74734977 45.74951172 14.93115234 C57.45724397 25.36915229 66.46918063 40.56836597 67.44189453 56.484375 C67.94088314 75.14897336 63.06815315 92.29167557 50.07470703 106.2734375 C36.1211715 119.30217731 19.32674817 125.75772478 0.34814453 125.42578125 C-16.78693137 124.65410478 -31.46489581 115.29024112 -43.08544922 103.30078125 C-53.85162102 90.70983456 -58.52830616 75.23112683 -58.24169922 58.89453125 C-56.73068048 40.76230635 -48.5389879 25.44564047 -34.86669922 13.45703125 C-24.46823264 5.33412938 -13.14357039 0.98468662 0 0 Z " fill="#6FD83F" transform="translate(428.92919921875,350.85546875)"/>
<path d="M0 0 C4.75425924 1.99226366 7.90772781 4.53700736 11.53051758 8.17407227 C12.04672668 8.688237 12.56293579 9.20240173 13.0947876 9.73214722 C14.78537498 11.41974606 16.46502201 13.11778794 18.14453125 14.81640625 C19.32124865 15.99618379 20.49855994 17.17536926 21.67643738 18.35398865 C24.13614772 20.81828939 26.59087995 23.28740355 29.04174805 25.76049805 C32.18684226 28.9339669 35.34063546 32.0986078 38.49771595 35.26014805 C40.92509052 37.69167271 43.34962079 40.12601553 45.77310753 42.56141472 C46.93568922 43.72969994 48.09874471 44.89751387 49.2622776 46.06485176 C50.8829813 47.69240937 52.50024738 49.32330147 54.11645508 50.95532227 C55.03767654 51.88337173 55.95889801 52.8114212 56.90803528 53.76759338 C59.88517457 56.94459985 60.24090613 58.84759398 60.4375 63.125 C60.49808594 64.03507812 60.55867187 64.94515625 60.62109375 65.8828125 C58.84864817 74.77848277 49.49660542 81.81390958 43.34375 87.95703125 C42.31273094 88.99194627 41.28193253 90.02708117 40.25134277 91.06242371 C38.10306687 93.21811422 35.95101933 95.36995096 33.79638672 97.51928711 C31.04423783 100.26561923 28.30367929 103.02320727 25.56603241 105.78398609 C23.44537357 107.91940762 21.31779526 110.04782931 19.18818665 112.17432213 C18.17480693 113.18821284 17.16376723 114.20444833 16.15519714 115.22312355 C14.74414673 116.64658228 13.32245858 118.05947179 11.90039062 119.47192383 C11.09686157 120.27608231 10.29333252 121.08024078 9.4654541 121.9087677 C4.75821119 125.9015163 0.35026824 127.67766863 -5.75 127.4921875 C-10.9568405 126.35319114 -14.16597389 122.25103916 -17 118 C-17.86700403 113.68032503 -18.00029988 109.65730158 -15.6796875 105.8125 C-13.88061387 103.74719574 -12.00341098 101.86725684 -10 100 C-3.10608664 93.75477354 -3.10608664 93.75477354 0.4375 85.4375 C-0.16011143 82.10795058 -1.37245405 81.09270739 -4 79 C-6.90241341 78.40662335 -6.90241341 78.40662335 -10.17318726 78.50793457 C-11.44055222 78.4998024 -12.70791718 78.49167023 -14.01368713 78.48329163 C-15.41586574 78.49438383 -16.81804163 78.50582437 -18.22021484 78.51757812 C-19.69873922 78.51539197 -21.17726187 78.5113948 -22.65577698 78.50572205 C-25.83867358 78.49715692 -29.02123301 78.50094091 -32.20411301 78.5141449 C-37.23853345 78.53447599 -42.27261379 78.52450647 -47.30703735 78.5098877 C-58.90490627 78.48084617 -70.50267546 78.4915808 -82.10056305 78.50258636 C-92.72516927 78.51226201 -103.34959823 78.51353381 -113.97417414 78.48270559 C-118.977041 78.46933601 -123.97939831 78.47528637 -128.98223472 78.49607086 C-132.09753046 78.50506397 -135.21263027 78.49757627 -138.32790947 78.48565865 C-139.77025072 78.4835299 -141.21262111 78.48823721 -142.65491295 78.5003643 C-144.62749699 78.51601221 -146.6002396 78.50466677 -148.57284546 78.49206543 C-149.67564535 78.49357353 -150.77844524 78.49508163 -151.91466331 78.49663544 C-156.57366455 77.74669293 -159.72907432 75.44622578 -162.8125 71.9375 C-165.30707802 67.86739901 -165.63434318 63.65185002 -165 59 C-162.71591567 54.51642706 -160.47996518 52.20777344 -156 50 C-153.04050446 49.6292057 -153.04050446 49.6292057 -149.6998291 49.63491821 C-148.42964432 49.62960587 -147.15945953 49.62429352 -145.8507843 49.61882019 C-144.45065151 49.62796746 -143.0505203 49.63735982 -141.65039062 49.64697266 C-140.17009852 49.64614151 -138.68980664 49.64392424 -137.20951843 49.64042664 C-134.02614297 49.63548226 -130.84295191 49.63956399 -127.65959167 49.65044022 C-122.6254009 49.66680905 -117.59144113 49.65833215 -112.55725098 49.64559937 C-99.1482115 49.61548672 -85.73921392 49.61695256 -72.33015776 49.63585222 C-63.51703021 49.64818208 -54.70416437 49.64633696 -45.89106703 49.61746442 C-40.88701377 49.60222281 -35.8836706 49.60972305 -30.87966156 49.63417459 C-27.76654946 49.64424286 -24.65376345 49.63355753 -21.54068947 49.61705971 C-20.0979284 49.61360715 -18.65511747 49.61870926 -17.21242332 49.63302803 C-15.24175241 49.6513754 -13.27085396 49.63604102 -11.3001709 49.61904907 C-9.6465366 49.62074569 -9.6465366 49.62074569 -7.95949554 49.62247658 C-4.0044537 48.79060477 -2.4809246 47.12423111 0 44 C0.26755283 40.33919777 -0.10995049 38.15256852 -2.38232422 35.20996094 C-4.16907058 33.34708497 -6.02077065 31.60366571 -7.9375 29.875 C-13.40069456 24.85300061 -16.64354924 21.74273299 -17.375 14.0625 C-17.24485602 9.74334682 -15.84834139 7.2980795 -13 4 C-8.62840367 0.30842977 -5.69599218 -0.71199902 0 0 Z " fill="#FDD300" transform="translate(181,35)"/>
<path d="M0 0 C33.66 0 67.32 0 102 0 C102 6.93 102 13.86 102 21 C102.495 24.96 102.495 24.96 103 29 C69.01 29 35.02 29 0 29 C0.66 27.02 1.32 25.04 2 23 C2.29637142 20.89163856 2.29637142 20.89163856 2.265625 18.90625 C2.26820313 18.18566406 2.27078125 17.46507812 2.2734375 16.72265625 C2.26570313 15.98917969 2.25796875 15.25570313 2.25 14.5 C2.25773437 13.76652344 2.26546875 13.03304688 2.2734375 12.27734375 C2.26957031 11.19646484 2.26957031 11.19646484 2.265625 10.09375 C2.26336914 9.45115234 2.26111328 8.80855469 2.25878906 8.14648438 C1.98777682 5.29533263 1.98777682 5.29533263 0 0 Z " fill="#048FF5" transform="translate(254,399)"/>
<path d="M0 0 C3.64088671 0.71193449 5.2727945 1.73014767 7.71435547 4.53076172 C8.46435547 7.78076172 8.46435547 7.78076172 7.71435547 11.53076172 C6.39317322 13.3503418 6.39317322 13.3503418 4.67114258 15.23779297 C3.7177449 16.28749268 3.7177449 16.28749268 2.74508667 17.35839844 C-2.85971242 23.35410074 -8.56862095 29.24046368 -14.32788086 35.08789062 C-15.93102535 36.72289866 -17.5260523 38.36590391 -19.11303711 40.01660156 C-21.42111606 42.41574822 -23.75423076 44.78779714 -26.09423828 47.15576172 C-26.79657089 47.89624756 -27.4989035 48.6367334 -28.22251892 49.3996582 C-33.82040943 54.97587323 -33.82040943 54.97587323 -38.55883789 55.16870117 C-42.19859655 54.54566224 -43.5681912 54.24428086 -46.10595703 51.69873047 C-47.09450684 50.73845947 -47.09450684 50.73845947 -48.10302734 49.75878906 C-48.82329102 49.02354004 -49.54355469 48.28829102 -50.28564453 47.53076172 C-51.13223633 46.71172363 -51.97882813 45.89268555 -52.85107422 45.04882812 C-55.64714684 42.3389802 -58.40640859 39.59557967 -61.16064453 36.84326172 C-62.11887996 35.897199 -63.07721275 34.95123489 -64.03564453 34.00537109 C-64.94056641 33.10238281 -65.84548828 32.19939453 -66.77783203 31.26904297 C-67.59622559 30.4547583 -68.41461914 29.64047363 -69.2578125 28.80151367 C-72.00068211 25.7300677 -73.15071552 23.61019381 -73.66064453 19.53076172 C-73.28564453 16.53076172 -73.28564453 16.53076172 -71.72314453 14.15576172 C-68.2031611 11.8091061 -66.4545351 11.76646511 -62.28564453 12.53076172 C-59.20672513 14.42330851 -56.81991966 16.97302108 -54.28564453 19.53076172 C-53.00506213 20.79966499 -51.72374541 22.06782738 -50.44189453 23.33544922 C-46.70211336 27.04653755 -42.98751928 30.78189051 -39.28564453 34.53076172 C-36.28869983 33.19061227 -34.25806038 31.72944673 -31.98925781 29.36621094 C-31.36826202 28.72569794 -30.74726624 28.08518494 -30.10745239 27.42526245 C-29.44695892 26.73562408 -28.78646545 26.04598572 -28.10595703 25.33544922 C-26.68858048 23.88304815 -25.27059287 22.4312432 -23.85205078 20.97998047 C-21.62469971 18.69063553 -19.40230798 16.39707682 -17.19042969 14.09277344 C-15.05072507 11.86845042 -12.89260902 9.66342048 -10.73095703 7.46044922 C-10.07451202 6.76676239 -9.41806702 6.07307556 -8.74172974 5.35836792 C-4.09622637 0.66170279 -4.09622637 0.66170279 0 0 Z " fill="#010300" transform="translate(466.28564453125,385.46923828125)"/>
<path d="M0 0 C0.66 0.33 1.32 0.66 2 1 C-6 9 -6 9 -8.4921875 11.36328125 C-11.19340428 14.20334562 -13.35216658 17.20087783 -15.4375 20.5 C-15.82510498 21.11093506 -16.21270996 21.72187012 -16.61206055 22.35131836 C-32.42833012 47.81285499 -34.53946107 74.70605869 -28.26171875 103.37109375 C-24.30096365 118.10660445 -16.21483019 131.77977314 -6 143 C-4.97287331 144.22391264 -3.95083392 145.45214347 -2.9375 146.6875 C-1.9784375 147.8321875 -1.9784375 147.8321875 -1 149 C-15.1707954 143.37285607 -24.99017055 125.04074078 -30.875 111.875 C-40.14767931 90.22142264 -40.76278758 65.49809981 -32.8125 43.3125 C-25.74938331 26.39485523 -14.82434965 10.99871103 0 0 Z " fill="#E0BA00" transform="translate(54,259)"/>
<path d="M0 0 C5.45397933 0.89117309 7.83060847 4.77193907 11 9 C20.69618137 23.15602659 22.72615773 37.61061434 20.56640625 54.36328125 C17.5011915 68.73742498 9.20165655 79.95250817 -2 89 C-2.66 88.67 -3.32 88.34 -4 88 C-3.443125 87.47535156 -2.88625 86.95070313 -2.3125 86.41015625 C9.20439425 74.71817408 14.8582866 60.08006872 15.3125 43.8125 C15.01079669 27.15177281 10.30211631 13.11178439 0 0 Z " fill="#0480DC" transform="translate(345,135)"/>
<path d="M0 0 C0 3.49324868 -0.60916551 4.13553262 -2.625 6.875 C-13.98650402 23.50093614 -17.33583221 41.95683964 -13.8125 61.6875 C-11.1487929 73.51386626 -6.51960638 82.52119097 1 92 C0.67 92.66 0.34 93.32 0 94 C-12.60711776 82.54480163 -19.92554805 67.71992496 -21.25390625 50.7578125 C-21.90977581 32.09726569 -15.18946695 16.93081937 -3 3 C-2.01228226 1.98786677 -1.01717023 0.98252976 0 0 Z " fill="#60BB37" transform="translate(392,366)"/>
<path d="M0 0 C0.66 0.33 1.32 0.66 2 1 C1.02947189 1.95720444 1.02947189 1.95720444 0.03933716 2.93374634 C-6.06255901 8.95542577 -12.15473591 14.98673506 -18.23624992 21.02900124 C-21.36300894 24.13490407 -24.49337118 27.23698401 -27.63232422 30.33056641 C-30.6626258 33.31734097 -33.6829919 36.31383998 -36.69678116 39.31727219 C-37.84710924 40.46022129 -39.00094691 41.59964954 -40.1583519 42.73543167 C-41.7815631 44.32951858 -43.39173241 45.93578029 -44.99951172 47.54541016 C-45.91884491 48.4558609 -46.8381781 49.36631165 -47.78536987 50.30435181 C-51.39282011 54.6953409 -52.45910803 59.17482757 -52.328125 64.83984375 C-51.58661986 69.72141929 -49.49147768 74.50852232 -46 78 C-46.33 78.99 -46.66 79.98 -47 81 C-53.55455861 74.77685166 -58.32411057 70.13803814 -58.7265625 60.7578125 C-56.45648173 52.14126938 -47.65587907 45.36133121 -41.5625 39.296875 C-40.55382653 38.28685089 -39.54544982 37.27653035 -38.53735352 36.26593018 C-36.43600911 34.16165595 -34.33113836 32.06099367 -32.22363281 29.96289062 C-29.5337789 27.28445946 -26.85304569 24.59710703 -24.17488098 21.90699387 C-22.09891639 19.82377766 -20.01818158 17.74537843 -17.93600464 15.66837311 C-16.94584727 14.67954158 -15.95715031 13.68924528 -14.97000122 12.69741058 C-13.5877276 11.310014 -12.19828381 9.92977251 -10.80859375 8.54980469 C-10.02282959 7.76563171 -9.23706543 6.98145874 -8.42749023 6.17352295 C-5.75156989 3.77756098 -3.02773633 1.92427061 0 0 Z " fill="#047AD2" transform="translate(222,193)"/>
<path d="M0 0 C1.65 0 3.3 0 5 0 C3.71937515 1.7074998 2.38232443 3.37373596 1 5 C0.34 5 -0.32 5 -1 5 C-1.2578125 5.58007812 -1.515625 6.16015625 -1.78125 6.7578125 C-3.09811439 9.18050532 -4.60664121 10.87734602 -6.5 12.875 C-10.3237406 17.17571447 -11.75869664 20.49044505 -12.3125 26.25 C-11.90894023 31.09271721 -10.55052489 35.41303052 -9 40 C-13.01157348 38.14850455 -15.9156998 35.95691365 -18 32 C-18.85023028 28.46918258 -18.85946552 25.53092522 -18 22 C-16.08171576 18.8666149 -13.68030945 16.49258349 -11 14 C-6.39514246 9.58621539 -2.91595444 5.7152707 0 0 Z " fill="#E0BA00" transform="translate(182,121)"/>
<path d="M0 0 C1.32 0.33 2.64 0.66 4 1 C2.77023438 2.14275391 2.77023438 2.14275391 1.515625 3.30859375 C-8.67043616 12.91310341 -8.67043616 12.91310341 -12.4375 26.0625 C-11.86470164 31.21768523 -10.32556038 35.34887924 -8 40 C-12.42326378 38.64844718 -14.40412982 36.80109562 -17 33 C-18.22397775 29.32806676 -18.72596231 25.80297686 -18 22 C-15.27801536 17.21216543 -11.82197531 13.62990839 -7.875 9.875 C-3.1610745 5.51475399 -3.1610745 5.51475399 0 0 Z " fill="#DFB900" transform="translate(182,436)"/>
<path d="M0 0 C-0.32484375 0.85271484 -0.32484375 0.85271484 -0.65625 1.72265625 C-3.43055258 9.41620832 -3.95595064 15.49179164 -0.75390625 23.16015625 C2.42887871 28.31357421 6.90445807 32.28676472 11.296875 36.41015625 C12.18890625 37.26480469 13.0809375 38.11945313 14 39 C14 39.33 14 39.66 14 40 C12.35 40 10.7 40 9 40 C8.46632812 38.97132813 7.93265625 37.94265625 7.3828125 36.8828125 C5.09835764 32.88350694 2.23148686 29.98648782 -1.125 26.875 C-5.47054947 22.84207999 -8.71981546 19.68325923 -9.1875 13.53515625 C-8.8348526 8.8846186 -8.39073398 5.80088388 -5.0625 2.375 C-2 0 -2 0 0 0 Z " fill="#E3BC00" transform="translate(173,351)"/>
<path d="M0 0 C-1.375 1.5 -1.375 1.5 -3 3 C-3.66 3 -4.32 3 -5 3 C-6.22541813 11.72556768 -5.95236976 18.09526048 -2 26 C-6.42326378 24.64844718 -8.40412982 22.80109562 -11 19 C-12.24283781 15.27148658 -12.5280726 11.87253239 -12 8 C-9.43979207 2.97440665 -6.04239198 -2.01413066 0 0 Z " fill="#DCB700" transform="translate(28,86)"/>
<path d="M0 0 C0.66 0.33 1.32 0.66 2 1 C1.34 2.134375 0.68 3.26875 0 4.4375 C-2.26500421 9.05680966 -3.01764097 12.92013646 -2 18 C-0.81924987 20.76168737 0.50228149 23.33321917 2.00390625 25.93359375 C2.33261719 26.61550781 2.66132813 27.29742187 3 28 C2.67 28.66 2.34 29.32 2 30 C0.69901283 28.78070272 -0.59042437 27.54907548 -1.875 26.3125 C-2.59429687 25.62800781 -3.31359375 24.94351563 -4.0546875 24.23828125 C-7.55023211 20.2162992 -8.46086826 16.31322684 -8.3203125 10.9921875 C-7.62458201 6.66508322 -5.01087578 3.84239648 -1.75 1.125 C-1.1725 0.75375 -0.595 0.3825 0 0 Z " fill="#DDB700" transform="translate(172,36)"/>
<path d="M0 0 C1.32 0.33 2.64 0.66 4 1 C-2.27 7.27 -8.54 13.54 -15 20 C-15 17 -15 17 -13.83837891 15.52954102 C-13.30647949 15.02608154 -12.77458008 14.52262207 -12.2265625 14.00390625 C-11.3603125 13.16569336 -11.3603125 13.16569336 -10.4765625 12.31054688 C-9.86554688 11.73369141 -9.25453125 11.15683594 -8.625 10.5625 C-7.4250639 9.4228171 -6.22958365 8.27842056 -5.0390625 7.12890625 C-4.23782959 6.37202515 -4.23782959 6.37202515 -3.42041016 5.59985352 C-1.86791015 3.85122296 -0.95423159 2.12559545 0 0 Z " fill="#D4B000" transform="translate(182,436)"/>
<path d="M0 0 C1.65 0 3.3 0 5 0 C1.55384615 4.8 1.55384615 4.8 -1.25 5.8125 C-2.11625 5.9053125 -2.11625 5.9053125 -3 6 C-2.01 4.02 -1.02 2.04 0 0 Z " fill="#DBB600" transform="translate(182,121)"/>
</svg>
